<svg width="64" height="64" fill="none" xmlns="http://www.w3.org/2000/svg"><path d="M28.202 54.84c7.092 1.174 14.643-.97 20.102-6.433 8.98-9.037 9.031-23.638.102-32.623l-1.938 1.94-3.419 3.42.051-17h16.94l-4.49 4.492-.103.102-.714.715c12.398 12.508 12.347 32.725-.102 45.182-7.194 7.199-17.041 10.262-26.429 9.139V54.84zM7.64 56.626l1.837-1.838-.102-.102c-12.5-12.508-12.5-32.777 0-45.285C16.62 2.101 26.518-.963 36.008.263v8.985c-7.194-1.276-14.847.868-20.357 6.382-9.031 9.036-9.031 23.688 0 32.725l.102.102 1.99-1.991 3.367-3.319-.05 16.95H4.12l3.52-3.471z" fill="#fff"/></svg>